<svg width="40" height="40" viewBox="0 0 40 40" fill="none" xmlns="http://www.w3.org/2000/svg">
<path d="M30.0002 20.8332C29.7002 20.8332 29.4335 20.8998 29.1668 20.9832V13.3332C29.1668 11.0332 27.3002 9.1665 25.0002 9.1665C25.0002 6.4165 22.7502 4.1665 20.0002 4.1665C17.2502 4.1665 15.0002 6.4165 15.0002 9.1665C12.7002 9.1665 10.8335 11.0332 10.8335 13.3332V21.6665C10.8335 23.0498 11.9502 24.1665 13.3335 24.1665C13.6335 24.1665 13.9002 24.1165 14.1668 24.0165V32.4998C14.1668 34.3332 15.6668 35.8332 17.5002 35.8332C18.5002 35.8332 19.3835 35.3998 20.0002 34.6998C20.6168 35.3998 21.5002 35.8332 22.5002 35.8332C24.3335 35.8332 25.8335 34.3332 25.8335 32.4998V24.0165C26.1002 24.1165 26.3668 24.1665 26.6668 24.1665C26.9668 24.1665 27.2335 24.0998 27.5002 24.0165V34.9998C27.5002 35.4665 27.8668 35.8332 28.3335 35.8332C28.8002 35.8332 29.1668 35.4665 29.1668 34.9998V23.3332C29.1668 22.8665 29.5335 22.4998 30.0002 22.4998C30.4668 22.4998 30.8335 22.8665 30.8335 23.3332C30.8335 23.7998 31.2002 24.1665 31.6668 24.1665C32.1335 24.1665 32.5002 23.7998 32.5002 23.3332C32.5002 21.9498 31.3835 20.8332 30.0002 20.8332ZM20.0002 5.83317C21.8335 5.83317 23.3335 7.33317 23.3335 9.1665C23.3335 10.9998 21.8335 12.4998 20.0002 12.4998C18.1668 12.4998 16.6668 10.9998 16.6668 9.1665C16.6668 7.33317 18.1668 5.83317 20.0002 5.83317ZM26.6668 22.4998C26.2002 22.4998 25.8335 22.1332 25.8335 21.6665V16.6665C25.8335 16.1998 25.4668 15.8332 25.0002 15.8332C24.5335 15.8332 24.1668 16.1998 24.1668 16.6665V32.4998C24.1668 33.4165 23.4168 34.1665 22.5002 34.1665C21.5835 34.1665 20.8335 33.4165 20.8335 32.4998V24.9998C20.8335 24.5332 20.4668 24.1665 20.0002 24.1665C19.5335 24.1665 19.1668 24.5332 19.1668 24.9998V32.4998C19.1668 33.4165 18.4168 34.1665 17.5002 34.1665C16.5835 34.1665 15.8335 33.4165 15.8335 32.4998V16.6665C15.8335 16.1998 15.4668 15.8332 15.0002 15.8332C14.5335 15.8332 14.1668 16.1998 14.1668 16.6665V21.6665C14.1668 22.1332 13.8002 22.4998 13.3335 22.4998C12.8668 22.4998 12.5002 22.1332 12.5002 21.6665V13.3332C12.5002 11.9498 13.6168 10.8332 15.0002 10.8332C15.1002 10.8332 15.2002 10.8165 15.2835 10.7832C15.9502 12.7498 17.8002 14.1665 20.0002 14.1665C22.2002 14.1665 24.0335 12.7332 24.7168 10.7832C24.8002 10.8165 24.9002 10.8332 25.0002 10.8332C26.3835 10.8332 27.5002 11.9498 27.5002 13.3332V21.6665C27.5002 22.1332 27.1335 22.4998 26.6668 22.4998Z" fill="#1F1B16"/>
</svg>
