<svg width="18" height="18" viewBox="0 0 18 18" fill="none" xmlns="http://www.w3.org/2000/svg">
<path d="M16.5 9C16.5 4.85786 13.1421 1.5 9 1.5C4.85786 1.5 1.5 4.85786 1.5 9C1.5 13.1421 4.85786 16.5 9 16.5C9.63127 16.5 10.5 16.5872 10.5 15.75C10.5 15.2932 10.2624 14.9409 10.0265 14.5908C9.68115 14.0786 9.33922 13.5715 9.75 12.75C10.25 11.75 11.0834 11.75 12.3611 11.75C13.0001 11.75 13.7501 11.75 14.625 11.625C16.2008 11.3999 16.5 10.4313 16.5 9Z" stroke="#FAFAF7"/>
<path d="M7.125 7.5C7.74632 7.5 8.25 6.99632 8.25 6.375C8.25 5.75368 7.74632 5.25 7.125 5.25C6.50368 5.25 6 5.75368 6 6.375C6 6.99632 6.50368 7.5 7.125 7.5Z" stroke="#FAFAF7"/>
<path d="M12.375 8.25C12.9963 8.25 13.5 7.74632 13.5 7.125C13.5 6.50368 12.9963 6 12.375 6C11.7537 6 11.25 6.50368 11.25 7.125C11.25 7.74632 11.7537 8.25 12.375 8.25Z" stroke="#FAFAF7"/>
<path d="M5.34375 11.25H5.25M5.4375 11.25C5.4375 11.3536 5.35355 11.4375 5.25 11.4375C5.14645 11.4375 5.0625 11.3536 5.0625 11.25C5.0625 11.1464 5.14645 11.0625 5.25 11.0625C5.35355 11.0625 5.4375 11.1464 5.4375 11.25Z" stroke="#FAFAF7" stroke-linecap="round" stroke-linejoin="round"/>
</svg>
