<svg width="40" height="40" viewBox="0 0 40 40" fill="none" xmlns="http://www.w3.org/2000/svg">
<path d="M24.1668 25.0002C24.1668 22.7002 22.3002 20.8335 20.0002 20.8335C17.7002 20.8335 15.8335 22.7002 15.8335 25.0002C15.8335 26.3668 16.5002 27.5668 17.5335 28.3335C16.5168 29.1002 15.8335 30.3002 15.8335 31.6668V33.3335C15.8335 34.7168 16.9502 35.8335 18.3335 35.8335H21.6668C23.0502 35.8335 24.1668 34.7168 24.1668 33.3335V31.6668C24.1668 30.3002 23.5002 29.1002 22.4668 28.3335C23.4835 27.5668 24.1668 26.3668 24.1668 25.0002ZM22.5002 31.6668V33.3335C22.5002 33.8002 22.1335 34.1668 21.6668 34.1668H18.3335C17.8668 34.1668 17.5002 33.8002 17.5002 33.3335V31.6668C17.5002 30.2835 18.6168 29.1668 20.0002 29.1668C21.3835 29.1668 22.5002 30.2835 22.5002 31.6668ZM20.0002 27.5002C18.6168 27.5002 17.5002 26.3835 17.5002 25.0002C17.5002 23.6168 18.6168 22.5002 20.0002 22.5002C21.3835 22.5002 22.5002 23.6168 22.5002 25.0002C22.5002 26.3835 21.3835 27.5002 20.0002 27.5002Z" fill="#1F1B16"/>
<path d="M35.8332 20.0002C35.8332 17.6168 34.3998 15.5668 32.3332 14.6668C33.4332 13.7502 34.1665 12.3835 34.1665 10.8335C34.1665 8.0835 31.9165 5.8335 29.1665 5.8335C26.4165 5.8335 24.1665 8.0835 24.1665 10.8335C24.1665 12.4002 24.8998 13.7668 26.0165 14.6835C25.5665 14.8835 25.1332 15.1002 24.7332 15.4002L21.4998 17.8335C20.6165 18.5002 19.3832 18.5002 18.4998 17.8335L15.2665 15.4002C14.8665 15.1002 14.4332 14.8668 13.9832 14.6835C15.0998 13.7668 15.8332 12.3835 15.8332 10.8335C15.8332 8.0835 13.5832 5.8335 10.8332 5.8335C8.08317 5.8335 5.83317 8.0835 5.83317 10.8335C5.83317 12.3835 6.54984 13.7502 7.6665 14.6668C5.6165 15.5668 4.1665 17.6168 4.1665 20.0002V20.5668C4.1665 22.2668 4.78317 23.9002 5.83317 25.2168V31.6502C5.83317 33.9502 7.69984 35.8168 9.99984 35.8168H13.3332C13.7998 35.8168 14.1665 35.4502 14.1665 34.9835C14.1665 34.5168 13.7998 34.1502 13.3332 34.1502H9.99984C8.6165 34.1502 7.49984 33.0335 7.49984 31.6502V27.0002L10.1832 29.6835C10.6832 30.1835 11.3498 30.4502 12.0165 30.4502C12.4165 30.4502 12.8165 30.3668 13.1832 30.1668C13.9332 29.7835 14.4498 29.0835 14.5832 28.2502C14.7165 27.4168 14.4498 26.6002 13.8498 26.0002L10.5832 22.7335C10.2498 22.4002 9.73317 22.4002 9.39984 22.7335C9.0665 23.0668 9.0665 23.5835 9.39984 23.9168L12.6665 27.1835C12.8832 27.4002 12.9832 27.7002 12.9332 28.0002C12.8832 28.3002 12.6998 28.5502 12.4332 28.6835C12.0665 28.8668 11.6332 28.8002 11.3498 28.5168L7.53317 24.7002C6.44984 23.6168 5.8165 22.1168 5.8165 20.5835V20.0168C5.8165 17.7168 7.68317 15.8502 9.98317 15.8502H11.5332C12.4998 15.8502 13.4665 16.1668 14.2498 16.7502L17.4832 19.1835C18.9498 20.2835 21.0165 20.2835 22.4832 19.1835L25.7165 16.7502C26.4998 16.1668 27.4665 15.8502 28.4332 15.8502H29.9832C32.2832 15.8502 34.1498 17.7168 34.1498 20.0168V20.5835C34.1498 22.1168 33.5332 23.6168 32.4332 24.7002L28.6165 28.5168C28.3332 28.8002 27.8998 28.8668 27.5332 28.7002C27.2665 28.5668 27.0832 28.3168 27.0332 28.0168C26.9832 27.7168 27.0832 27.4168 27.2998 27.2002L30.5665 23.9335C30.8998 23.6002 30.8998 23.0835 30.5665 22.7502C30.2332 22.4168 29.7165 22.4168 29.3832 22.7502L26.1165 26.0168C25.5165 26.6168 25.2498 27.4335 25.3832 28.2668C25.5165 29.1002 26.0332 29.8002 26.7832 30.1835C27.7832 30.6835 28.9998 30.4835 29.7832 29.7002L32.4665 27.0168V31.6668C32.4665 33.0502 31.3498 34.1668 29.9665 34.1668H26.6332C26.1665 34.1668 25.7998 34.5335 25.7998 35.0002C25.7998 35.4668 26.1665 35.8335 26.6332 35.8335H29.9665C32.2665 35.8335 34.1332 33.9668 34.1332 31.6668V25.2335C35.1832 23.9168 35.7998 22.2668 35.7998 20.5835V20.0168L35.8332 20.0002ZM10.8332 7.50016C12.6665 7.50016 14.1665 9.00016 14.1665 10.8335C14.1665 12.6668 12.6665 14.1668 10.8332 14.1668C8.99984 14.1668 7.49984 12.6668 7.49984 10.8335C7.49984 9.00016 8.99984 7.50016 10.8332 7.50016ZM29.1665 7.50016C30.9998 7.50016 32.4998 9.00016 32.4998 10.8335C32.4998 12.6668 30.9998 14.1668 29.1665 14.1668C27.3332 14.1668 25.8332 12.6668 25.8332 10.8335C25.8332 9.00016 27.3332 7.50016 29.1665 7.50016Z" fill="#1F1B16"/>
</svg>
