<svg width="40" height="40" viewBox="0 0 40 40" fill="none" xmlns="http://www.w3.org/2000/svg">
<path d="M20.0166 9.68311C22.0405 9.68311 23.6836 11.3262 23.6836 13.3501C23.6835 14.3864 23.2466 15.3089 22.5371 15.9888L22.0234 16.481L22.6611 16.7974L24.8115 17.8647L24.8369 17.8765C24.9924 17.9431 25.1781 17.9995 25.4004 17.9995H28.334C29.4409 17.9998 30.3338 18.8926 30.334 19.9995V20.3521C30.1681 21.2901 29.3539 21.9994 28.3672 21.9995H25.4336C25.1363 21.9995 24.8262 21.9217 24.5322 21.7817L24.5225 21.7778L24.5137 21.7739L24.3975 21.7231L23.7002 21.4253V29.9995C23.7002 31.1067 22.8074 31.9995 21.7002 31.9995C21.1924 31.9995 20.726 31.8134 20.3652 31.4927L20.0332 31.1978L19.7012 31.4927C19.3405 31.8133 18.8748 31.9994 18.3672 31.9995C17.26 31.9995 16.3672 31.1067 16.3672 29.9995V21.4253L15.6699 21.7231L15.5537 21.7739L15.5352 21.7808L15.5186 21.7905C15.2474 21.9326 14.9447 21.9995 14.6338 21.9995H11.7002C10.593 21.9995 9.7002 21.1067 9.7002 19.9995C9.70033 18.8924 10.5931 17.9995 11.7002 17.9995H14.6338C14.8351 17.9995 15.0363 17.9454 15.1973 17.8765L15.2227 17.8647L17.3721 16.7974L18.0176 16.478L17.4922 15.9849C16.7889 15.3255 16.3507 14.3894 16.3506 13.3501C16.3506 11.3263 17.9929 9.68325 20.0166 9.68311ZM18.7334 16.9995C18.532 16.9995 18.3309 17.0545 18.1699 17.1235L18.1562 17.1294L18.1436 17.1362L15.5098 18.4526L15.502 18.4565C15.2308 18.5986 14.9281 18.6665 14.6172 18.6665H11.6836C10.9409 18.6665 10.3507 19.2568 10.3506 19.9995C10.3506 20.7423 10.9408 21.3335 11.6836 21.3335H14.6172C14.8185 21.3334 15.0197 21.2785 15.1807 21.2095L15.2061 21.1978L18.1895 19.7144L18.1973 19.7104C18.366 19.6227 18.5563 19.69 18.6328 19.8491L18.6357 19.8569L18.6396 19.8638C18.7274 20.0325 18.6601 20.2228 18.501 20.2993H18.5L18.4932 20.3022L17.2266 20.936L16.8154 21.1421L16.9863 21.5688C16.9917 21.5824 17 21.6175 17 21.6665V29.9995C17 30.7423 17.5912 31.3335 18.334 31.3335C19.0766 31.3333 19.667 30.7422 19.667 29.9995V26.6665C19.667 26.476 19.8096 26.3336 20 26.3335C20.1905 26.3335 20.334 26.476 20.334 26.6665V29.9995C20.334 30.7423 20.9242 31.3335 21.667 31.3335C22.4097 31.3334 23 30.7423 23 29.9995V21.6665C23 21.6173 23.0093 21.5823 23.0146 21.5688L23.1855 21.1421L22.7734 20.936L21.5068 20.3022C21.3625 20.2298 21.2836 20.0348 21.3643 19.8569C21.437 19.7114 21.6344 19.6318 21.8135 19.7153L24.7939 21.1978L24.8994 21.2495H24.9414C25.0739 21.2969 25.2257 21.3335 25.4004 21.3335H28.334C29.0766 21.3333 29.667 20.7422 29.667 19.9995C29.6669 19.257 29.0765 18.6667 28.334 18.6665H25.4004C25.1045 18.6665 24.7957 18.5894 24.5029 18.4507L21.8604 17.1294L21.8467 17.1235L21.7246 17.0757C21.5964 17.0315 21.45 16.9995 21.2832 16.9995H18.7334ZM20 10.3335C18.3406 10.3336 17 11.6741 17 13.3335C17.0002 14.9927 18.3407 16.3334 20 16.3335C21.6593 16.3335 22.9998 14.9928 23 13.3335C23 11.674 21.6595 10.3335 20 10.3335Z" fill="#FAFAF7" stroke="#FAFAF7"/>
<path d="M10 8.0166C12.0239 8.0166 13.667 9.65974 13.667 11.6836C13.6669 12.5172 13.3899 13.2617 12.9189 13.8799L12.3066 14.6836H13.333C13.9016 14.6836 14.4548 14.8079 14.9551 15.0537L15.166 15.166C15.3279 15.2613 15.3778 15.4549 15.2852 15.6143C15.19 15.7774 14.9948 15.8276 14.835 15.7344L14.8291 15.7314L14.6553 15.6406C14.2436 15.4411 13.79 15.333 13.333 15.333H6.66699C5.0076 15.333 3.66713 16.6737 3.66699 18.333V23.333C3.66699 24.0758 4.25719 24.667 5 24.667C5.74281 24.667 6.33301 24.0758 6.33301 23.333V21.667C6.33301 21.4765 6.47647 21.333 6.66699 21.333C6.85735 21.3332 7 21.4766 7 21.667V30C7.00003 30.7427 7.59037 31.3328 8.33301 31.333C9.07579 31.333 9.66696 30.7428 9.66699 30V25C9.66699 24.8095 9.80948 24.667 10 24.667C10.1905 24.667 10.333 24.8095 10.333 25V30C10.333 30.7428 10.9242 31.333 11.667 31.333C12.4096 31.3328 13 30.7427 13 30V25C13 24.8469 13.0925 24.7258 13.2275 24.6836H13.333C13.5235 24.6836 13.667 24.8261 13.667 25.0166V30.0166C13.667 31.1237 12.774 32.0164 11.667 32.0166C11.1592 32.0166 10.6928 31.8305 10.332 31.5098L10 31.2139L9.66797 31.5098C9.30716 31.8305 8.84079 32.0166 8.33301 32.0166C7.22597 32.0164 6.33301 31.1237 6.33301 30.0166V24.9785L5.6582 25.2314C5.44738 25.3105 5.23973 25.3496 5 25.3496C3.89281 25.3496 3 24.4568 3 23.3496V18.3496C3.00018 16.3259 4.64324 14.6836 6.66699 14.6836H7.67383L7.08594 13.8867C6.62349 13.2602 6.33308 12.5119 6.33301 11.6836C6.33301 9.65974 7.97614 8.0166 10 8.0166ZM10 8.66699C8.34052 8.66699 7 10.0075 7 11.667C7.00021 13.3263 8.34065 14.667 10 14.667C11.6593 14.667 12.9998 13.3263 13 11.667C13 10.0075 11.6595 8.66699 10 8.66699Z" fill="#FAFAF7" stroke="#FAFAF7"/>
<path d="M29.9995 8C32.0234 8 33.6665 9.64313 33.6665 11.667C33.6664 12.4073 33.4475 13.0767 33.0688 13.6504H32.8335V13.9746L32.3071 14.667H33.6831C35.543 14.8433 36.9994 16.4107 36.9995 18.3164V23.3164C36.9995 24.4236 36.1067 25.3164 34.9995 25.3164C34.76 25.3164 34.553 25.2773 34.3423 25.1982L33.6665 24.9453V29.9834C33.6665 31.0906 32.7737 31.9834 31.6665 31.9834C31.1589 31.9834 30.6933 31.7971 30.3325 31.4766L29.9995 31.1807L29.6675 31.4766C29.3068 31.7971 28.8411 31.9833 28.3335 31.9834C27.2263 31.9834 26.3335 31.0906 26.3335 29.9834V24.9834C26.3335 24.7929 26.476 24.6504 26.6665 24.6504C26.857 24.6504 26.9995 24.7929 26.9995 24.9834V29.9834C26.9995 30.7262 27.5907 31.3164 28.3335 31.3164C29.0762 31.3163 29.6665 30.7261 29.6665 29.9834V24.9834C29.6665 24.793 29.8092 24.6506 29.9995 24.6504C30.19 24.6504 30.3335 24.7929 30.3335 24.9834V29.9834C30.3335 30.7261 30.9238 31.3164 31.6665 31.3164C32.4093 31.3164 32.9995 30.7262 32.9995 29.9834V21.6504C32.9995 21.4599 33.143 21.3164 33.3335 21.3164C33.5239 21.3165 33.6665 21.4599 33.6665 21.6504V23.3164C33.6665 24.0591 34.2569 24.6502 34.9995 24.6504C35.7423 24.6504 36.3335 24.0592 36.3335 23.3164V18.3164C36.3334 16.6571 34.9928 15.3165 33.3335 15.3164H26.6665C26.1443 15.3164 25.6264 15.4571 25.1704 15.7148L25.1646 15.7178C25.0047 15.811 24.8105 15.7608 24.7153 15.5977C24.6226 15.4384 24.6718 15.2449 24.8335 15.1494C25.3963 14.8401 26.0273 14.667 26.6665 14.667H27.6733L27.0854 13.8701C26.623 13.2436 26.3336 12.4953 26.3335 11.667C26.3335 9.64328 27.9759 8.00023 29.9995 8ZM29.9995 8.66699C28.3402 8.66722 26.9995 10.0077 26.9995 11.667C26.9997 13.3262 28.3403 14.6668 29.9995 14.667C31.6589 14.667 32.9993 13.3263 32.9995 11.667C32.9995 10.0075 31.659 8.66699 29.9995 8.66699Z" fill="#FAFAF7" stroke="#FAFAF7"/>
</svg>
