<svg width="40" height="40" viewBox="0 0 40 40" fill="none" xmlns="http://www.w3.org/2000/svg">
<path d="M33.3331 30.8332H32.4998V19.2332C32.7664 19.2332 33.0498 19.2332 33.3164 19.1498C34.0498 18.9498 34.6664 18.4332 35.0164 17.7498C35.6331 16.5332 35.2331 15.0332 34.0998 14.2832L21.5164 5.89984C20.5998 5.28317 19.4164 5.28317 18.4998 5.89984L14.1664 8.78317V6.6665C14.1664 5.28317 13.0498 4.1665 11.6664 4.1665H9.99977C8.61644 4.1665 7.49977 5.28317 7.49977 6.6665V13.2165L5.91644 14.2665C4.78311 15.0332 4.38311 16.5165 4.99977 17.7332C5.34977 18.4165 5.96644 18.9332 6.69977 19.1332C6.93311 19.1998 7.18311 19.2332 7.43311 19.2332C7.46644 19.2332 7.48311 19.2332 7.51644 19.2332V30.8332H6.68311C5.29977 30.8332 4.18311 31.9498 4.18311 33.3332C4.18311 34.7165 5.29977 35.8332 6.68311 35.8332H33.3498C34.7331 35.8332 35.8498 34.7165 35.8498 33.3332C35.8498 31.9498 34.7331 30.8332 33.3498 30.8332H33.3331ZM9.16644 18.6498L19.4498 12.2332C19.7831 12.0165 20.2164 12.0165 20.5664 12.2332L30.8498 18.6498V30.8332H29.1831V24.9998C29.1831 23.6165 28.0664 22.4998 26.6831 22.4998H23.3498C21.9664 22.4998 20.8498 23.6165 20.8498 24.9998V30.8332H9.18311V18.6498H9.16644ZM22.4998 24.9998C22.4998 24.5332 22.8664 24.1665 23.3331 24.1665H26.6664C27.1331 24.1665 27.4998 24.5332 27.4998 24.9998V30.8332H22.4998V24.9998ZM9.16644 6.6665C9.16644 6.19984 9.53311 5.83317 9.99977 5.83317H11.6664C12.1331 5.83317 12.4998 6.19984 12.4998 6.6665V9.88317L9.16644 12.0998V6.64984V6.6665ZM7.14977 17.5332C6.86644 17.4498 6.63311 17.2665 6.49977 16.9998C6.26644 16.5332 6.41644 15.9498 6.84977 15.6665L19.4331 7.28317C19.6164 7.1665 19.8164 7.09984 20.0164 7.09984C20.2164 7.09984 20.4164 7.1665 20.5998 7.28317L33.1831 15.6665C33.6164 15.9498 33.7664 16.5332 33.5331 16.9998C33.3998 17.2665 33.1664 17.4665 32.8831 17.5332C32.5998 17.6165 32.2998 17.5665 32.0498 17.4165L21.4664 10.7998C20.5831 10.2498 19.4664 10.2498 18.5831 10.7998L7.99977 17.4165C7.74977 17.5665 7.44977 17.6165 7.16644 17.5332H7.14977ZM33.3331 34.1665H6.66644C6.19977 34.1665 5.83311 33.7998 5.83311 33.3332C5.83311 32.8665 6.19977 32.4998 6.66644 32.4998H33.3331C33.7998 32.4998 34.1664 32.8665 34.1664 33.3332C34.1664 33.7998 33.7998 34.1665 33.3331 34.1665Z" fill="#FAFAF7"/>
<path d="M19.9998 20.8332C21.8332 20.8332 23.3332 19.3332 23.3332 17.4998C23.3332 15.6665 21.8332 14.1665 19.9998 14.1665C18.1665 14.1665 16.6665 15.6665 16.6665 17.4998C16.6665 19.3332 18.1665 20.8332 19.9998 20.8332ZM19.9998 15.8332C20.9165 15.8332 21.6665 16.5832 21.6665 17.4998C21.6665 18.4165 20.9165 19.1665 19.9998 19.1665C19.0832 19.1665 18.3332 18.4165 18.3332 17.4998C18.3332 16.5832 19.0832 15.8332 19.9998 15.8332Z" fill="#FAFAF7"/>
<path d="M16.6668 22.5H13.3335C11.9502 22.5 10.8335 23.6167 10.8335 25V26.6667C10.8335 28.05 11.9502 29.1667 13.3335 29.1667H16.6668C18.0502 29.1667 19.1668 28.05 19.1668 26.6667V25C19.1668 23.6167 18.0502 22.5 16.6668 22.5ZM17.5002 26.6667C17.5002 27.1333 17.1335 27.5 16.6668 27.5H13.3335C12.8668 27.5 12.5002 27.1333 12.5002 26.6667V25C12.5002 24.5333 12.8668 24.1667 13.3335 24.1667H16.6668C17.1335 24.1667 17.5002 24.5333 17.5002 25V26.6667Z" fill="#FAFAF7"/>
</svg>
