<svg width="18" height="18" viewBox="0 0 18 18" fill="none" xmlns="http://www.w3.org/2000/svg">
<path d="M4.56703 11.2494C4.28323 10.6115 4.125 9.90173 4.125 9.15383C4.125 6.37616 6.30761 4.12441 9 4.12441C11.6924 4.12441 13.875 6.37616 13.875 9.15383C13.875 9.90173 13.7168 10.6115 13.433 11.2494" stroke="#FAFAF7" stroke-linecap="round"/>
<path d="M9 1.49941V2.24941" stroke="#FAFAF7" stroke-linecap="round" stroke-linejoin="round"/>
<path d="M16.5 8.9994H15.75" stroke="#FAFAF7" stroke-linecap="round" stroke-linejoin="round"/>
<path d="M2.25 8.9994H1.5" stroke="#FAFAF7" stroke-linecap="round" stroke-linejoin="round"/>
<path d="M14.3028 3.69594L13.7725 4.22627" stroke="#FAFAF7" stroke-linecap="round" stroke-linejoin="round"/>
<path d="M4.2276 4.227L3.69727 3.69667" stroke="#FAFAF7" stroke-linecap="round" stroke-linejoin="round"/>
<path d="M10.8878 14.4792C11.6456 14.2341 11.9495 13.5405 12.035 12.8428C12.0605 12.6344 11.889 12.4615 11.679 12.4615L6.35764 12.4617C6.14044 12.4617 5.96601 12.646 5.99194 12.8617C6.07568 13.558 6.28703 14.0666 7.09009 14.4792M10.8878 14.4792C10.8878 14.4792 7.22229 14.4792 7.09009 14.4792M10.8878 14.4792C10.7966 15.9379 10.3754 16.5157 9.0051 16.4995C7.53945 16.5265 7.20228 15.8125 7.09009 14.4792" stroke="#FAFAF7" stroke-linecap="round" stroke-linejoin="round"/>
</svg>
