<svg width="65" height="64" viewBox="0 0 65 64" fill="none" xmlns="http://www.w3.org/2000/svg">
<path d="M63.8884 34.6965C60.9006 30.0902 59.3172 24.7297 59.3172 19.2716C59.3172 18.4849 59.3497 17.7036 59.4148 16.9169C59.4311 16.7216 59.4365 16.5263 59.4365 16.331C59.4365 12.8152 56.7686 9.81485 53.2114 9.47304C50.088 9.16921 47.0568 8.34995 44.2371 7.06409C41.4228 5.78366 38.8091 4.03662 36.5262 1.88267C35.1923 0.62394 33.4896 0 31.7924 0C29.9921 0 28.1972 0.699898 26.847 2.09427C24.6617 4.34588 22.1294 6.20685 19.3693 7.61207C16.6092 9.01729 13.616 9.96677 10.5089 10.4117C7.07099 10.9 4.57663 13.8515 4.57663 17.237C4.57663 17.5246 4.59831 17.823 4.63627 18.116C4.7881 19.315 4.86944 20.5141 4.86944 21.7131C4.86944 26.7426 3.53007 31.707 0.954367 36.08C0.309085 37.1814 0 38.3859 0 39.5741C0 41.9071 1.18211 44.1804 3.31317 45.4825C5.99733 47.1156 8.3724 49.1665 10.3516 51.5483C12.3363 53.9301 13.9305 56.6375 15.053 59.5673C16.0995 62.3072 18.7186 64 21.495 64C22.2866 64 23.0838 63.8644 23.87 63.5768C27.0151 62.4212 30.312 61.8406 33.6143 61.8406C36.5045 61.8406 39.4002 62.2855 42.1928 63.1753C42.8869 63.3923 43.5918 63.5009 44.2859 63.5009C47.1761 63.5009 49.8657 61.667 50.8255 58.7806C52.8101 52.8233 56.7144 47.6853 61.9363 44.1967C63.9209 42.8674 65 40.6809 65 38.4564C65 37.1706 64.6367 35.863 63.883 34.7019L63.8884 34.6965ZM53.9814 41.4893C53.271 42.4062 52.2299 43.0519 51.0261 43.3991C49.112 43.9471 47.0514 43.4479 45.4897 42.2109C43.2068 40.3988 40.9239 38.5866 38.641 36.7799C37.9632 36.3513 37.0793 36.4327 36.4991 36.9753C35.9189 37.5178 35.7725 38.3967 36.1521 39.0966C36.1629 39.1183 36.1846 39.14 36.2009 39.1563C38.7712 41.3428 41.3469 43.5239 43.9226 45.7104C45.224 46.8227 45.9452 48.5154 45.7066 50.2082C45.4409 52.0638 44.351 53.7674 42.6374 54.7223C42.1711 54.9827 41.6777 55.178 41.1788 55.3082C37.7626 56.1818 34.4548 53.4961 34.3681 49.9695L34.1349 40.4476C34.0644 39.5361 33.3215 38.8362 32.4648 38.8199C31.7219 38.8037 31.0224 39.3137 30.7892 40.0678C30.7892 40.0895 30.7838 40.1112 30.7838 40.1275C30.7783 43.2743 30.7621 46.4157 30.7567 49.5571C30.7567 51.9932 29.2709 54.2448 26.9771 55.0478C25.3883 55.6012 23.6097 55.5415 22.0643 54.7603C21.945 54.7006 21.8312 54.6355 21.7173 54.5704C18.1818 52.4761 18.0571 47.3706 21.3377 44.8966L28.0454 39.8291C28.8262 39.2431 28.9835 38.1146 28.3924 37.3333C27.8068 36.5521 26.6789 36.3947 25.8981 36.9861L18.659 42.4551C17.1569 43.589 15.1668 43.8874 13.4208 43.1875C11.4578 42.4008 10.0317 41.0173 9.60332 39.216C9.27797 37.8108 9.60874 36.3513 10.4547 35.0275C11.8971 32.7487 14.6842 31.707 17.3142 32.2767L25.1497 33.9586C26.1041 34.1648 27.0585 33.5409 27.2645 32.5914C27.4706 31.6365 26.8524 30.6816 25.8981 30.4754L18.2631 28.8369C16.029 28.3594 14.1474 26.7915 13.3666 24.6375C12.7159 22.8308 12.7647 21.0187 13.6702 19.57C14.2613 18.626 15.1506 17.9424 16.2242 17.5192C19.288 16.331 22.7476 17.8555 24.1466 20.8288L27.7417 28.4788C27.7417 28.4788 27.758 28.5114 27.7688 28.5222C28.3274 29.2492 29.2058 29.5585 29.8728 29.3198C30.7783 28.9942 31.3586 27.6216 30.6916 26.3737L27.3079 19.1848C25.5022 15.3489 28.2406 10.7915 32.481 10.8349C32.6057 10.8349 32.7305 10.8349 32.8552 10.8511C33.289 10.8837 33.7119 10.9542 34.1132 11.0736C37.6921 12.1044 39.3351 16.2659 37.6595 19.5917C36.4232 22.0549 35.1869 24.5073 33.9505 26.9705C33.4842 27.7518 33.7716 28.7664 34.5362 29.1679C35.317 29.5856 36.3473 29.2275 36.7052 28.3703C37.9524 25.8311 39.1941 23.2974 40.4413 20.7582C41.965 17.6602 45.7391 16.255 48.8083 17.8284C49.5512 18.2136 50.2236 18.7453 50.755 19.4181C50.9122 19.6134 51.0532 19.8196 51.1779 20.0312C53.1301 23.3028 51.2376 27.5456 47.5503 28.5059C44.5896 29.2764 41.6234 30.0468 38.6627 30.8227C37.7572 31.0777 37.2041 31.8969 37.2908 32.6239C37.3993 33.5137 38.2615 34.1594 39.6605 33.9424C42.4477 33.2913 45.2348 32.6402 48.022 31.9837C50.9448 31.2947 53.9543 32.9766 54.8002 35.8576C55.4021 37.9193 55.1093 40.0353 53.9868 41.4839L53.9814 41.4893Z" fill="#044A28"/>
</svg>