<svg width="209" height="63" viewBox="0 0 209 63" fill="none" xmlns="http://www.w3.org/2000/svg">
<path d="M64.3502 34.1544C61.3408 29.62 59.746 24.3433 59.746 18.9705C59.746 18.1961 59.7788 17.427 59.8443 16.6526C59.8607 16.4603 59.8661 16.2681 59.8661 16.0758C59.8661 12.615 57.179 9.6615 53.5961 9.32502C50.4501 9.02594 47.397 8.21948 44.5569 6.95371C41.7222 5.69329 39.0897 3.97355 36.7903 1.85326C35.4467 0.614191 33.7317 0 32.0222 0C30.2089 0 28.4011 0.688962 27.0411 2.06155C24.84 4.27798 22.2894 6.10987 19.5093 7.49313C16.7293 8.8764 13.7144 9.81104 10.5849 10.249C7.12211 10.7297 4.60971 13.635 4.60971 16.9677C4.60971 17.2508 4.63156 17.5445 4.66979 17.8329C4.82272 19.0132 4.90464 20.1935 4.90464 21.3739C4.90464 26.3248 3.55559 31.2116 0.961266 35.5163C0.311319 36.6005 0 37.7861 0 38.9557C0 41.2523 1.19066 43.4901 3.33712 44.7719C6.04069 46.3794 8.43293 48.3983 10.4265 50.7429C12.4255 53.0875 14.0312 55.7525 15.1618 58.6366C16.2159 61.3337 18.8539 63 21.6503 63C22.4478 63 23.2506 62.8665 24.0426 62.5834C27.2104 61.4458 30.5311 60.8744 33.8573 60.8744C36.7684 60.8744 39.685 61.3123 42.4978 62.1882C43.1969 62.4018 43.9069 62.5087 44.606 62.5087C47.5171 62.5087 50.2262 60.7035 51.1929 57.8622C53.1919 51.998 57.1243 46.9402 62.384 43.5061C64.383 42.1976 65.4699 40.0453 65.4699 37.8555C65.4699 36.5898 65.104 35.3026 64.3448 34.1597L64.3502 34.1544ZM54.3716 40.841C53.6561 41.7436 52.6075 42.3792 51.395 42.721C49.467 43.2604 47.3915 42.7691 45.8185 41.5514C43.5192 39.7675 41.2198 37.9837 38.9204 36.2052C38.2377 35.7833 37.3474 35.8634 36.763 36.3975C36.1786 36.9316 36.0311 37.7968 36.4134 38.4858C36.4244 38.5071 36.4462 38.5285 36.4626 38.5445C39.0514 40.6968 41.6458 42.8438 44.2401 44.9962C45.5509 46.091 46.2773 47.7574 46.037 49.4237C45.7694 51.2503 44.6716 52.9273 42.9457 53.8672C42.476 54.1236 41.9789 54.3159 41.4765 54.444C38.0356 55.3039 34.7039 52.6602 34.6165 49.1887L34.3817 39.8156C34.3107 38.9184 33.5624 38.2294 32.6994 38.2134C31.9512 38.1974 31.2466 38.6994 31.0118 39.4418C31.0118 39.4631 31.0063 39.4845 31.0063 39.5005C31.0008 42.5982 30.9845 45.6905 30.979 48.7828C30.979 51.1808 29.4825 53.3973 27.1722 54.1877C25.5719 54.7325 23.7804 54.6737 22.2238 53.9046C22.1037 53.8459 21.989 53.7818 21.8743 53.7177C18.3132 51.6562 18.1876 46.6305 21.4919 44.1951L28.2481 39.2068C29.0346 38.63 29.193 37.5191 28.5977 36.75C28.0078 35.9809 26.8718 35.826 26.0853 36.4082L18.7938 41.7917C17.2809 42.9079 15.2765 43.2017 13.5178 42.5127C11.5407 41.7383 10.1042 40.3764 9.67274 38.6033C9.34504 37.22 9.6782 35.7833 10.5302 34.4802C11.9831 32.237 14.7904 31.2116 17.4393 31.7724L25.3316 33.428C26.2928 33.631 27.2541 33.0168 27.4616 32.0821C27.6692 31.1422 27.0465 30.2022 26.0853 29.9992L18.3951 28.3863C16.1449 27.9163 14.2497 26.3728 13.4632 24.2525C12.8078 22.4741 12.8569 20.6902 13.769 19.2642C14.3644 18.3349 15.2601 17.662 16.3415 17.2454C19.4274 16.0758 22.912 17.5766 24.3211 20.5033L27.9423 28.0338C27.9423 28.0338 27.9587 28.0659 27.9696 28.0766C28.5321 28.7922 29.4169 29.0966 30.0887 28.8616C31.0008 28.5412 31.5852 27.19 30.9135 25.9616L27.5053 18.885C25.6866 15.1091 28.4447 10.6228 32.7158 10.6656C32.8414 10.6656 32.9671 10.6656 33.0927 10.6816C33.5296 10.7136 33.9556 10.7831 34.3598 10.9006C37.9646 11.9153 39.6195 16.0117 37.9318 19.2856C36.6865 21.7103 35.4412 24.1244 34.196 26.5491C33.7262 27.3182 34.0157 28.3169 34.7858 28.7121C35.5723 29.1234 36.6101 28.7709 36.9705 27.927C38.2267 25.4275 39.4775 22.9334 40.7337 20.4339C42.2684 17.3843 46.0698 16.001 49.1611 17.5498C49.9094 17.929 50.5866 18.4524 51.1219 19.1147C51.2803 19.307 51.4223 19.5099 51.5479 19.7182C53.5141 22.9387 51.608 27.1152 47.894 28.0605C44.9119 28.8189 41.9243 29.5773 38.9422 30.341C38.0301 30.5921 37.473 31.3985 37.5604 32.1142C37.6696 32.9901 38.538 33.6256 39.9472 33.412C42.7545 32.7711 45.5618 32.1302 48.3692 31.484C51.3131 30.8057 54.3443 32.4613 55.1964 35.2973C55.8026 37.3268 55.5077 39.4097 54.3771 40.8357L54.3716 40.841Z" fill="#044A28"/>
<path d="M82.8117 53.7329C81.1695 53.7329 80.5784 53.1463 80.5784 52.3642C80.5784 50.3439 83.7313 50.9956 83.7313 46.9549V14.2384C83.7313 10.1977 80.5784 10.8494 80.5784 8.82907C80.5784 8.047 81.1695 7.46045 82.8117 7.46045H91.4166C92.2048 7.46045 92.5989 7.85148 92.993 8.63355L107.313 38.1567L119.727 8.24252C119.924 7.72114 120.384 7.46045 120.975 7.46045H132.47C134.112 7.46045 134.704 8.047 134.704 8.82907C134.704 10.8494 131.551 10.1977 131.551 14.2384V46.9549C131.551 50.9956 134.704 50.3439 134.704 52.3642C134.704 53.1463 134.112 53.7329 132.47 53.7329H119.464C117.822 53.7329 117.231 53.1463 117.231 52.3642C117.231 50.3439 120.384 50.9956 120.384 46.9549V18.3442L105.736 53.1463C105.211 54.4498 103.766 54.4498 103.109 53.1463L88.3293 22.9715V46.9549C88.3293 50.9956 91.4822 50.3439 91.4822 52.3642C91.4822 53.1463 90.8911 53.7329 89.2489 53.7329H82.8117Z" fill="#044A28"/>
<path d="M151.753 54.7104C142.491 54.7104 135.463 47.5415 135.463 37.1139C135.463 27.1425 143.542 19.8432 153.263 19.8432C157.073 19.8432 160.16 21.4725 162.591 23.8839C166.335 23.0367 168.043 19.8432 170.079 19.8432C170.867 19.8432 171.393 20.3646 171.393 21.4725V42.5232C171.393 47.8022 173.889 46.8898 173.889 48.7146C173.889 49.3663 173.495 49.8877 172.247 50.1484C162.788 52.1036 164.364 54.7104 162.065 54.7104C161.146 54.7104 160.752 53.9935 160.752 52.9508V51.4518C158.387 53.407 155.365 54.7104 151.753 54.7104ZM154.183 50.8001C158.387 50.8001 161.014 46.3684 161.014 37.5701C161.014 28.5763 158.256 23.7536 153.789 23.7536C149.454 23.7536 146.892 28.0549 146.892 36.8532C146.892 45.847 149.585 50.8001 154.183 50.8001Z" fill="#044A28"/>
<path d="M193.63 54.7104C182.857 54.7104 175.829 47.5415 175.829 37.9611C175.829 28.3808 182.857 19.8432 193.892 19.8432C203.811 19.8432 209 27.9246 209 36.3318C209 37.8308 208.146 38.6129 206.832 38.6129H186.995C187.981 45.7167 192.119 48.7798 197.374 48.7798C200.527 48.7798 203.088 47.8022 204.862 46.1077C206.307 44.8042 208.146 46.3032 207.227 47.8673C204.993 51.6473 200.395 54.7104 193.63 54.7104ZM186.733 34.7025H197.045C198.293 34.7025 198.819 34.2463 198.819 33.3991C198.819 27.5987 196.914 23.7536 193.564 23.7536C189.557 23.7536 186.798 27.7942 186.733 34.7025Z" fill="#044A28"/>
</svg>
