<svg width="221" height="64" viewBox="0 0 221 64" fill="none" xmlns="http://www.w3.org/2000/svg">
<path d="M63.8884 34.6965C60.9006 30.0902 59.3172 24.7297 59.3172 19.2716C59.3172 18.4849 59.3497 17.7036 59.4148 16.9169C59.4311 16.7216 59.4365 16.5263 59.4365 16.331C59.4365 12.8152 56.7686 9.81485 53.2114 9.47304C50.088 9.16921 47.0568 8.34995 44.2371 7.06409C41.4228 5.78366 38.8091 4.03662 36.5262 1.88267C35.1923 0.62394 33.4896 0 31.7924 0C29.9921 0 28.1972 0.699898 26.847 2.09427C24.6617 4.34588 22.1294 6.20685 19.3693 7.61207C16.6092 9.01729 13.616 9.96677 10.5089 10.4117C7.07099 10.9 4.57663 13.8515 4.57663 17.237C4.57663 17.5246 4.59831 17.823 4.63627 18.116C4.7881 19.315 4.86944 20.5141 4.86944 21.7131C4.86944 26.7426 3.53007 31.707 0.954367 36.08C0.309085 37.1814 0 38.3859 0 39.5741C0 41.9071 1.18211 44.1804 3.31317 45.4825C5.99733 47.1156 8.3724 49.1665 10.3516 51.5483C12.3363 53.9301 13.9305 56.6375 15.053 59.5673C16.0995 62.3072 18.7186 64 21.495 64C22.2866 64 23.0838 63.8644 23.87 63.5768C27.0151 62.4212 30.312 61.8406 33.6143 61.8406C36.5045 61.8406 39.4002 62.2855 42.1928 63.1753C42.8869 63.3923 43.5918 63.5009 44.2859 63.5009C47.1761 63.5009 49.8657 61.667 50.8255 58.7806C52.8101 52.8233 56.7144 47.6853 61.9363 44.1967C63.9209 42.8674 65 40.6809 65 38.4564C65 37.1706 64.6367 35.863 63.883 34.7019L63.8884 34.6965ZM53.9814 41.4893C53.271 42.4062 52.2299 43.0519 51.0261 43.3991C49.112 43.9471 47.0514 43.4479 45.4897 42.2109C43.2068 40.3988 40.9239 38.5866 38.641 36.7799C37.9632 36.3513 37.0793 36.4327 36.4991 36.9753C35.9189 37.5178 35.7725 38.3967 36.1521 39.0966C36.1629 39.1183 36.1846 39.14 36.2009 39.1563C38.7712 41.3428 41.3469 43.5239 43.9226 45.7104C45.224 46.8227 45.9452 48.5154 45.7066 50.2082C45.4409 52.0638 44.351 53.7674 42.6374 54.7223C42.1711 54.9827 41.6777 55.178 41.1788 55.3082C37.7626 56.1818 34.4548 53.4961 34.3681 49.9695L34.1349 40.4476C34.0644 39.5361 33.3215 38.8362 32.4648 38.8199C31.7219 38.8037 31.0224 39.3137 30.7892 40.0678C30.7892 40.0895 30.7838 40.1112 30.7838 40.1275C30.7783 43.2743 30.7621 46.4157 30.7567 49.5571C30.7567 51.9932 29.2709 54.2448 26.9771 55.0478C25.3883 55.6012 23.6097 55.5415 22.0643 54.7603C21.945 54.7006 21.8312 54.6355 21.7173 54.5704C18.1818 52.4761 18.0571 47.3706 21.3377 44.8966L28.0454 39.8291C28.8262 39.2431 28.9835 38.1146 28.3924 37.3333C27.8068 36.5521 26.6789 36.3947 25.8981 36.9861L18.659 42.4551C17.1569 43.589 15.1668 43.8874 13.4208 43.1875C11.4578 42.4008 10.0317 41.0173 9.60332 39.216C9.27797 37.8108 9.60874 36.3513 10.4547 35.0275C11.8971 32.7487 14.6842 31.707 17.3142 32.2767L25.1497 33.9586C26.1041 34.1648 27.0585 33.5409 27.2645 32.5914C27.4706 31.6365 26.8524 30.6816 25.8981 30.4754L18.2631 28.8369C16.029 28.3594 14.1474 26.7915 13.3666 24.6375C12.7159 22.8308 12.7647 21.0187 13.6702 19.57C14.2613 18.626 15.1506 17.9424 16.2242 17.5192C19.288 16.331 22.7476 17.8555 24.1466 20.8288L27.7417 28.4788C27.7417 28.4788 27.758 28.5114 27.7688 28.5222C28.3274 29.2492 29.2058 29.5585 29.8728 29.3198C30.7783 28.9942 31.3586 27.6216 30.6916 26.3737L27.3079 19.1848C25.5022 15.3489 28.2406 10.7915 32.481 10.8349C32.6057 10.8349 32.7305 10.8349 32.8552 10.8511C33.289 10.8837 33.7119 10.9542 34.1132 11.0736C37.6921 12.1044 39.3351 16.2659 37.6595 19.5917C36.4232 22.0549 35.1869 24.5073 33.9505 26.9705C33.4842 27.7518 33.7716 28.7664 34.5362 29.1679C35.317 29.5856 36.3473 29.2275 36.7052 28.3703C37.9524 25.8311 39.1941 23.2974 40.4413 20.7582C41.965 17.6602 45.7391 16.255 48.8083 17.8284C49.5512 18.2136 50.2236 18.7453 50.755 19.4181C50.9122 19.6134 51.0532 19.8196 51.1779 20.0312C53.1301 23.3028 51.2376 27.5456 47.5503 28.5059C44.5896 29.2764 41.6234 30.0468 38.6627 30.8227C37.7572 31.0777 37.2041 31.8969 37.2908 32.6239C37.3993 33.5137 38.2615 34.1594 39.6605 33.9424C42.4477 33.2913 45.2348 32.6402 48.022 31.9837C50.9448 31.2947 53.9543 32.9766 54.8002 35.8576C55.4021 37.9193 55.1093 40.0353 53.9868 41.4839L53.9814 41.4893Z" fill="#29422A"/>
<path d="M112.632 36.3495L109.04 37.4589L118.882 9.57895C119.385 8.19509 119.948 7.25263 120.57 6.75158C121.217 6.25053 122.103 6 123.229 6H138.099C138.794 6 139.309 6.14316 139.644 6.42948C139.979 6.71579 140.147 7.10948 140.147 7.61053C140.147 8.06386 140.027 8.43368 139.787 8.72C139.572 9.00632 139.249 9.23298 138.818 9.4L137.201 9.82947C136.531 10.0442 136.064 10.3544 135.8 10.76C135.561 11.1656 135.465 11.7621 135.513 12.5495L138.135 49.8063C138.183 50.6414 138.315 51.214 138.53 51.5242C138.77 51.8344 139.189 52.0849 139.787 52.2758L141.368 52.7053C141.799 52.8484 142.11 53.0632 142.302 53.3495C142.517 53.6119 142.625 53.9579 142.625 54.3874C142.625 54.8884 142.457 55.306 142.122 55.64C141.787 55.9502 141.272 56.1053 140.578 56.1053H119.493C118.775 56.1053 118.248 55.9621 117.912 55.6758C117.577 55.3656 117.41 54.9719 117.41 54.4947C117.41 54.0653 117.505 53.7074 117.697 53.4211C117.888 53.1109 118.248 52.8723 118.775 52.7053L120.391 52.2758C121.061 52.0611 121.516 51.7867 121.756 51.4526C121.995 51.0947 122.091 50.5221 122.043 49.7347L119.313 12.2632L122.51 11.6547L108.43 51.8821C107.951 53.1944 107.46 54.0295 106.957 54.3874C106.454 54.7453 105.879 54.9242 105.233 54.9242C104.754 54.9242 104.311 54.8646 103.904 54.7453C103.521 54.6021 103.149 54.3039 102.79 53.8505C102.431 53.3972 102.06 52.6814 101.677 51.7032L86.7701 12.8716L89.8233 11.9053L86.9138 47.6589C86.818 48.8519 87.1533 49.8302 87.9196 50.5937C88.7098 51.3572 89.6916 51.9895 90.865 52.4905L91.763 52.92C92.0743 53.0632 92.3137 53.254 92.4813 53.4926C92.649 53.7312 92.7328 54.0414 92.7328 54.4232C92.7328 54.9242 92.5652 55.3298 92.2299 55.64C91.9186 55.9502 91.4157 56.1053 90.7213 56.1053H79.0115C78.3171 56.1053 77.8022 55.9621 77.467 55.6758C77.1557 55.3656 77 54.9719 77 54.4947C77 53.9937 77.1317 53.6119 77.3951 53.3495C77.6825 53.087 78.0417 52.8484 78.4727 52.6337L79.1911 52.3474C80.1729 51.9656 81.023 51.393 81.7414 50.6295C82.4837 49.8421 82.9148 48.8281 83.0345 47.5874L85.6566 15.2337C85.8003 13.5158 85.7524 12.2512 85.5129 11.44C85.2735 10.6049 84.7826 10.0681 84.0402 9.82947L82.4598 9.4C81.9809 9.23298 81.6217 9.00632 81.3822 8.72C81.1667 8.43368 81.0589 8.06386 81.0589 7.61053C81.0589 6.53684 81.7534 6 83.1423 6H98.1207C99.1504 6 99.9766 6.22667 100.599 6.68C101.246 7.13333 101.82 8.02807 102.323 9.36421L112.632 36.3495Z" fill="#29422A"/>
<path d="M166.26 51.8105V51.0947L165.326 51.3095V27.0442C165.326 26.1614 165.087 25.4575 164.608 24.9326C164.129 24.3839 163.506 24.1095 162.74 24.1095C162.046 24.1095 161.459 24.3004 160.98 24.6821C160.525 25.0639 160.298 25.5768 160.298 26.2211V30.0505C160.298 31.9116 159.639 33.4147 158.322 34.56C157.005 35.6814 155.173 36.2421 152.826 36.2421C150.982 36.2421 149.57 35.8246 148.588 34.9895C147.606 34.1305 147.115 32.9018 147.115 31.3032C147.115 29.8239 147.774 28.3446 149.091 26.8653C150.432 25.3621 152.431 24.1214 155.089 23.1432C157.747 22.1411 161.076 21.64 165.075 21.64C169.984 21.64 173.636 22.5467 176.03 24.36C178.425 26.1733 179.622 28.7144 179.622 31.9832V49.3053C179.622 49.8063 179.742 50.2 179.981 50.4863C180.221 50.7726 180.556 50.9158 180.987 50.9158C181.37 50.9158 181.706 50.7965 181.993 50.5579C182.28 50.3193 182.508 49.9972 182.675 49.5916C182.795 49.4484 182.915 49.3291 183.035 49.2337C183.154 49.1382 183.298 49.0905 183.466 49.0905C183.753 49.0905 183.957 49.1979 184.076 49.4126C184.196 49.6035 184.256 49.866 184.256 50.2C184.256 51.0589 183.909 52.0253 183.214 53.0989C182.544 54.1488 181.49 55.0674 180.053 55.8547C178.617 56.6182 176.773 57 174.522 57C171.912 57 169.876 56.4989 168.415 55.4968C166.979 54.4947 166.26 53.266 166.26 51.8105ZM145.535 48.6611C145.535 45.5354 146.912 43.0779 149.665 41.2884C152.419 39.4751 156.538 38.5684 162.022 38.5684C163.315 38.5684 164.404 38.6758 165.29 38.8905C166.176 39.1053 166.931 39.3916 167.553 39.7495L166.655 41.7895C166.129 41.4793 165.626 41.2646 165.147 41.1453C164.692 41.026 164.177 40.9663 163.602 40.9663C162.453 40.9663 161.543 41.4197 160.872 42.3263C160.226 43.233 159.902 44.5691 159.902 46.3347C159.902 48.1003 160.238 49.4126 160.908 50.2716C161.579 51.1305 162.441 51.56 163.494 51.56C164.141 51.56 164.764 51.393 165.362 51.0589C165.961 50.701 166.416 50.2716 166.727 49.7705L167.446 51.6674C166.368 53.3614 164.799 54.6737 162.74 55.6042C160.681 56.5347 158.466 57 156.095 57C152.982 57 150.444 56.2126 148.48 54.6379C146.516 53.0393 145.535 51.047 145.535 48.6611Z" fill="#29422A"/>
<path d="M221 35.8842C221 37.0056 220.689 37.8884 220.066 38.5326C219.443 39.153 218.546 39.4632 217.372 39.4632H195.605V36.8147H205.339C206.321 36.8147 206.812 36.3375 206.812 35.3832C206.812 31.6849 206.429 29.0484 205.662 27.4737C204.92 25.8751 204.01 25.0758 202.932 25.0758C202.166 25.0758 201.472 25.3979 200.849 26.0421C200.227 26.6863 199.724 27.7242 199.34 29.1558C198.957 30.5635 198.766 32.4365 198.766 34.7747C198.766 39.3319 199.748 42.6723 201.711 44.7958C203.699 46.8954 206.381 47.9453 209.757 47.9453C211.745 47.9453 213.457 47.5874 214.894 46.8716C216.33 46.1319 217.432 44.9986 218.198 43.4716C218.629 43.0421 218.965 42.7558 219.204 42.6126C219.443 42.4695 219.671 42.3979 219.886 42.3979C220.222 42.3979 220.461 42.553 220.605 42.8632C220.773 43.1733 220.856 43.567 220.856 44.0442C220.856 46.4063 220.15 48.5775 218.737 50.5579C217.324 52.5144 215.361 54.0772 212.846 55.2463C210.356 56.4154 207.482 57 204.226 57C200.729 57 197.592 56.2961 194.815 54.8884C192.061 53.4568 189.882 51.4765 188.277 48.9474C186.673 46.3944 185.871 43.4358 185.871 40.0716C185.871 36.3018 186.613 33.033 188.098 30.2653C189.606 27.4975 191.773 25.3621 194.599 23.8589C197.449 22.3558 200.849 21.6042 204.8 21.6042C208.296 21.6042 211.242 22.2246 213.636 23.4653C216.055 24.706 217.887 26.4 219.132 28.5474C220.377 30.6947 221 33.1404 221 35.8842Z" fill="#29422A"/>
</svg>
