<svg width="587" height="218" viewBox="0 0 587 218" fill="none" xmlns="http://www.w3.org/2000/svg">
<path d="M10.2 213C2.7 213 0 210.3 0 206.7C0 197.4 14.4 200.4 14.4 181.8V31.2C14.4 12.6 0 15.6 0 6.30001C0 2.7 2.7 0 10.2 0H49.5C53.1 0 54.9 1.79999 56.7 5.4L122.1 141.3L178.8 3.60001C179.7 1.2 181.8 0 184.5 0H237C244.5 0 247.2 2.7 247.2 6.30001C247.2 15.6 232.8 12.6 232.8 31.2V181.8C232.8 200.4 247.2 197.4 247.2 206.7C247.2 210.3 244.5 213 237 213H177.6C170.1 213 167.4 210.3 167.4 206.7C167.4 197.4 181.8 200.4 181.8 181.8V50.1L114.9 210.3C112.5 216.3 105.9 216.3 102.9 210.3L35.4 71.4V181.8C35.4 200.4 49.8 197.4 49.8 206.7C49.8 210.3 47.1 213 39.6 213H10.2Z" fill="#044A28"/>
<path d="M325.066 217.5C282.766 217.5 250.666 184.5 250.666 136.5C250.666 90.6 287.566 57 331.966 57C349.366 57 363.466 64.5 374.566 75.6C391.666 71.7 399.466 57 408.766 57C412.366 57 414.766 59.4 414.766 64.5V161.4C414.766 185.7 426.166 181.5 426.166 189.9C426.166 192.9 424.366 195.3 418.666 196.5C375.466 205.5 382.666 217.5 372.166 217.5C367.966 217.5 366.166 214.2 366.166 209.4V202.5C355.366 211.5 341.566 217.5 325.066 217.5ZM336.166 199.5C355.366 199.5 367.366 179.1 367.366 138.6C367.366 97.2 354.766 75 334.366 75C314.566 75 302.866 94.8 302.866 135.3C302.866 176.7 315.166 199.5 336.166 199.5Z" fill="#044A28"/>
<path d="M516.326 217.5C467.126 217.5 435.026 184.5 435.026 140.4C435.026 96.3 467.126 57 517.526 57C562.826 57 586.526 94.2 586.526 132.9C586.526 139.8 582.626 143.4 576.626 143.4H486.026C490.526 176.1 509.426 190.2 533.426 190.2C547.826 190.2 559.526 185.7 567.626 177.9C574.226 171.9 582.626 178.8 578.426 186C568.226 203.4 547.226 217.5 516.326 217.5ZM484.826 125.4H531.926C537.626 125.4 540.026 123.3 540.026 119.4C540.026 92.7 531.326 75 516.026 75C497.726 75 485.126 93.6 484.826 125.4Z" fill="#044A28"/>
</svg>
