<svg width="40" height="40" viewBox="0 0 40 40" fill="none" xmlns="http://www.w3.org/2000/svg">
<path d="M20.0002 36.6665L16.6668 26.6665H3.3335L6.66683 36.6665H20.0002ZM20.0002 36.6665H26.6668" stroke="#FAFAF7" stroke-width="2" stroke-linecap="round" stroke-linejoin="round"/>
<path d="M19.9998 21.6665V20.8332C19.9998 17.6905 19.9998 16.1191 19.0235 15.1428C18.0472 14.1665 16.4759 14.1665 13.3332 14.1665C10.1905 14.1665 8.61912 14.1665 7.64282 15.1428C6.6665 16.1191 6.6665 17.6905 6.6665 20.8332V21.6665" stroke="#FAFAF7" stroke-width="2" stroke-linecap="round" stroke-linejoin="round"/>
<path d="M31.6667 21.6668C31.6667 23.5078 30.1743 25.0002 28.3333 25.0002C26.4923 25.0002 25 23.5078 25 21.6668C25 19.8258 26.4923 18.3335 28.3333 18.3335C30.1743 18.3335 31.6667 19.8258 31.6667 21.6668Z" stroke="#FAFAF7" stroke-width="2"/>
<path d="M16.6667 6.66683C16.6667 8.50778 15.1743 10.0002 13.3333 10.0002C11.4924 10.0002 10 8.50778 10 6.66683C10 4.82588 11.4924 3.3335 13.3333 3.3335C15.1743 3.3335 16.6667 4.82588 16.6667 6.66683Z" stroke="#FAFAF7" stroke-width="2"/>
<path d="M23.3335 29.1665H33.3335C35.1745 29.1665 36.6668 30.6588 36.6668 32.4998V33.3332C36.6668 35.1742 35.1745 36.6665 33.3335 36.6665H31.6668" stroke="#FAFAF7" stroke-width="2" stroke-linecap="round"/>
</svg>
