<svg width="26" height="26" viewBox="0 0 26 26" fill="none" xmlns="http://www.w3.org/2000/svg">
<path d="M12.9961 3C13.2778 3 13.5476 3.11224 13.7469 3.31144C13.946 3.51063 14.0583 3.78048 14.0583 4.06219V11.9349H21.931C22.2127 11.9349 22.4825 12.0471 22.6818 12.2464C22.8809 12.4455 22.9932 12.7153 22.9932 12.997C22.9932 13.2788 22.8809 13.5487 22.6818 13.7478C22.4825 13.9471 22.2127 14.0592 21.931 14.0592H14.0583V21.9319C14.0583 22.2137 13.946 22.4836 13.7469 22.6827C13.5476 22.882 13.2778 22.9941 12.9961 22.9941C12.7144 22.9941 12.4446 22.882 12.2453 22.6827C12.0462 22.4836 11.9339 22.2137 11.9339 21.9319V14.0592H4.06121C3.77951 14.0592 3.50965 13.9471 3.31045 13.7478C3.11125 13.5487 2.99902 13.2788 2.99902 12.997C2.99902 12.7153 3.11125 12.4455 3.31045 12.2464C3.50965 12.0471 3.77949 11.9349 4.06121 11.9349H11.9339V4.06219C11.9339 3.78048 12.0462 3.51063 12.2453 3.31144C12.4446 3.11224 12.7144 3 12.9961 3Z" fill="#1F1B16" stroke="#1F1B16" stroke-width="0.499854"/>
</svg>
