<svg width="18" height="18" viewBox="0 0 18 18" fill="none" xmlns="http://www.w3.org/2000/svg">
<path d="M13.2188 2.8125H4.78125C4.21875 2.8125 3.65625 3.09375 3.375 3.375C3.04153 3.70847 2.8125 4.21875 2.8125 4.78125V13.2188C2.8125 13.7812 2.96393 14.1607 3.375 14.625C3.74638 15.0444 4.21875 15.1875 4.78125 15.1875H13.2188C13.7812 15.1875 14.2229 15.0517 14.625 14.625C15.0271 14.1983 15.1875 13.7812 15.1875 13.2188V4.78125C15.1875 4.21875 14.9062 3.6428 14.625 3.375C14.3438 3.1072 13.7812 2.8125 13.2188 2.8125Z" stroke="#1F1B16" stroke-linecap="round" stroke-linejoin="round"/>
<path d="M12.375 1.6875V3.9375" stroke="#1F1B16" stroke-linecap="round" stroke-linejoin="round"/>
<path d="M5.625 1.6875V3.9375" stroke="#1F1B16" stroke-linecap="round" stroke-linejoin="round"/>
<path d="M2.8125 6.1875H15.1875" stroke="#1F1B16" stroke-linecap="round" stroke-linejoin="round"/>
</svg>
