<svg width="40" height="40" viewBox="0 0 40 40" fill="none" xmlns="http://www.w3.org/2000/svg">
<path d="M33.8832 7.71651C32.6499 6.48318 30.6832 6.44984 29.3999 7.63318L23.2832 13.2832C23.0832 11.2332 21.3832 9.61651 19.2832 9.61651C17.0499 9.61651 15.2332 11.4332 15.2332 13.6665C15.2332 15.6498 16.6665 17.2998 18.5665 17.6332L15.5999 20.3665C14.2165 18.8498 11.9165 18.3832 10.0332 19.3832L5.13319 21.9498C4.49986 22.2832 4.03319 22.8498 3.83319 23.5332C3.63319 24.2165 3.71652 24.9332 4.06652 25.5665C4.56652 26.4498 5.49986 26.9498 6.46652 26.9498C6.89986 26.9498 7.31652 26.8498 7.71652 26.6332L10.2499 25.2998L9.98319 25.5498C9.46652 26.0165 9.18319 26.6832 9.18319 27.3832V27.5998C7.74986 27.9665 6.68319 29.2665 6.68319 30.8165C6.68319 32.6498 8.18319 34.1498 10.0165 34.1498C11.8499 34.1498 13.3499 32.6498 13.3499 30.8165C13.3499 29.2665 12.2832 27.9665 10.8499 27.5998V27.3832C10.8499 27.1498 10.9499 26.9332 11.1165 26.7665L12.1499 25.7998C12.1499 25.7998 12.1832 25.7998 12.1999 25.7998H22.9999L23.9332 26.7332C24.0832 26.8832 24.1832 27.0998 24.1832 27.3165V27.5832C22.7499 27.9498 21.6832 29.2498 21.6832 30.7998C21.6832 32.6332 23.1832 34.1332 25.0165 34.1332C26.8499 34.1332 28.3499 32.6332 28.3499 30.7998C28.3499 29.2498 27.2832 27.9498 25.8499 27.5832V27.3165C25.8499 26.6665 25.5832 26.0165 25.1165 25.5498L24.5999 25.0332C25.6165 24.1498 26.9999 22.5498 27.4999 20.1332C28.1832 16.7498 26.6165 14.0832 25.8999 13.0998L30.5499 8.81651C31.1665 8.24984 32.1332 8.26651 32.7332 8.86651C33.0332 9.16651 33.1999 9.56651 33.1999 9.98318C33.1999 10.3998 33.0332 10.7998 32.7332 11.0998C32.3999 11.4165 32.3999 11.9498 32.7332 12.2832C33.0665 12.6165 33.5832 12.6165 33.9165 12.2832C34.5332 11.6665 34.8665 10.8665 34.8665 9.99984C34.8665 9.13318 34.5332 8.31651 33.9165 7.71651H33.8832ZM16.8999 13.6665C16.8999 12.3498 17.9665 11.2832 19.2832 11.2832C20.5999 11.2832 21.6665 12.3498 21.6665 13.6665C21.6665 14.9832 20.5999 16.0498 19.2832 16.0498C17.9665 16.0498 16.8999 14.9832 16.8999 13.6665ZM6.93319 25.1665C6.43319 25.4332 5.78319 25.2332 5.51652 24.7498C5.38319 24.5165 5.34986 24.2498 5.43319 24.0165C5.49986 23.7665 5.68319 23.5665 5.91652 23.4498L10.8165 20.8832C11.2499 20.6498 11.7165 20.5498 12.1832 20.5498C12.9332 20.5498 13.6832 20.8332 14.2499 21.3665L6.96652 25.1832L6.93319 25.1665ZM11.6665 30.8332C11.6665 31.7498 10.9165 32.4998 9.99986 32.4998C9.08319 32.4998 8.33319 31.7498 8.33319 30.8332C8.33319 29.9165 9.08319 29.1665 9.99986 29.1665C10.9165 29.1665 11.6665 29.9165 11.6665 30.8332ZM26.6665 30.8332C26.6665 31.7498 25.9165 32.4998 24.9999 32.4998C24.0832 32.4998 23.3332 31.7498 23.3332 30.8332C23.3332 29.9165 24.0832 29.1665 24.9999 29.1665C25.9165 29.1665 26.6665 29.9165 26.6665 30.8332ZM25.8499 19.8332C25.3832 22.1665 23.8665 23.5665 23.0665 24.1665H13.9332L16.0832 22.1832C16.0832 22.1832 16.1165 22.1498 16.1332 22.1332L24.6499 14.2665C25.2499 15.1665 26.3832 17.2165 25.8499 19.8332Z" fill="#1F1B16"/>
</svg>
