<svg width="40" height="40" viewBox="0 0 40 40" fill="none" xmlns="http://www.w3.org/2000/svg">
<path d="M35.6834 12.8834C35.1667 10.2668 33.5001 8.08342 31.1167 6.90009C27.1001 4.90009 22.2501 6.36675 20.0001 10.1668C17.7501 6.36675 12.9001 4.90009 8.88341 6.90009C6.50008 8.08342 4.85008 10.2668 4.31674 12.8834C3.80008 15.4668 4.50008 18.0834 6.23341 20.0668C8.60008 22.8001 11.0834 25.5001 13.5834 28.0834C14.3334 28.8668 15.1001 29.6334 15.8501 30.4001C16.9667 31.5168 18.4334 32.1334 20.0167 32.1334C21.6001 32.1334 23.0667 31.5168 24.1834 30.4001C24.9334 29.6334 25.7001 28.8668 26.4501 28.0834C28.9501 25.4834 31.4167 22.7834 33.8001 20.0668C35.5334 18.0834 36.2167 15.4668 35.7167 12.8834H35.6834ZM25.2167 26.9334C24.4667 27.7168 23.7167 28.4834 22.9667 29.2334C21.3667 30.8334 18.6001 30.8334 17.0167 29.2334C16.2667 28.4834 15.5167 27.7168 14.7667 26.9334C13.8001 25.9334 12.8667 24.9168 11.9167 23.9001C12.7001 23.0168 13.8001 22.5168 15.0001 22.5168C17.3001 22.5168 19.1667 24.3834 19.1667 26.6834C19.1667 27.1501 19.5334 27.5168 20.0001 27.5168C20.4667 27.5168 20.8334 27.1501 20.8334 26.6834C20.8334 24.3834 22.7001 22.5168 25.0001 22.5168C26.1834 22.5168 27.2834 23.0501 28.0667 23.9168C27.1167 24.9334 26.1667 25.9668 25.2167 26.9501V26.9334ZM12.5001 18.3334C12.5001 16.9501 13.6167 15.8334 15.0001 15.8334C16.3834 15.8334 17.5001 16.9501 17.5001 18.3334C17.5001 19.7168 16.3834 20.8334 15.0001 20.8334C13.6167 20.8334 12.5001 19.7168 12.5001 18.3334ZM22.5001 18.3334C22.5001 16.9501 23.6167 15.8334 25.0001 15.8334C26.3834 15.8334 27.5001 16.9501 27.5001 18.3334C27.5001 19.7168 26.3834 20.8334 25.0001 20.8334C23.6167 20.8334 22.5001 19.7168 22.5001 18.3334ZM32.5167 18.9668C31.4334 20.2168 30.3167 21.4501 29.2001 22.6668C28.7501 22.2001 28.2501 21.7834 27.6834 21.4834C28.5834 20.7168 29.1667 19.6001 29.1667 18.3168C29.1667 16.0168 27.3001 14.1501 25.0001 14.1501C22.7001 14.1501 20.8334 16.0168 20.8334 18.3168C20.8334 19.6001 21.4167 20.7334 22.3334 21.5001C21.3667 22.0001 20.5501 22.7668 20.0001 23.7001C19.4501 22.7668 18.6334 22.0001 17.6667 21.5001C18.5834 20.7334 19.1667 19.6001 19.1667 18.3168C19.1667 16.0168 17.3001 14.1501 15.0001 14.1501C12.7001 14.1501 10.8334 16.0168 10.8334 18.3168C10.8334 19.5834 11.4167 20.7168 12.3167 21.4834C11.7501 21.7834 11.2334 22.1834 10.7834 22.6668C9.66674 21.4501 8.56674 20.2001 7.48341 18.9668C6.10008 17.3834 5.55008 15.2834 5.95008 13.2001C6.36674 11.1001 7.70008 9.33342 9.61674 8.38342C12.9834 6.70009 17.1001 8.06675 18.8001 11.4501L19.2501 12.3501C19.5334 12.9168 20.4501 12.9168 20.7334 12.3501L21.1834 11.4501C22.8667 8.08342 26.9834 6.70009 30.3667 8.38342C32.2834 9.33342 33.6167 11.1001 34.0334 13.2001C34.4501 15.2834 33.8834 17.3834 32.5001 18.9668H32.5167Z" fill="#1F1B16"/>
</svg>
