<svg width="40" height="40" viewBox="0 0 40 40" fill="none" xmlns="http://www.w3.org/2000/svg">
<path d="M30.5998 24.1666C30.1332 24.1666 29.7665 24.5333 29.7665 24.9999C29.7665 25.4666 30.1332 25.8333 30.5998 25.8333C32.4165 25.8333 33.9832 27.1499 34.1498 28.8166C34.2498 29.7833 33.9498 30.6833 33.2998 31.3999C32.6665 32.0999 31.7665 32.4999 30.8332 32.4999H27.2165C27.3998 32.1166 27.4998 31.6999 27.4998 31.2499V27.9499C27.4998 26.9166 27.2332 25.9166 26.7332 25.0499C26.0832 23.9499 25.3332 22.8999 24.5165 21.9166C24.0998 21.4333 23.7665 21.0833 23.4832 20.7666C23.0665 20.3333 22.7665 20.0166 22.4165 19.5166C22.2998 19.3499 22.2165 19.1833 22.1165 19.0166C22.3498 18.8666 22.4998 18.6166 22.4998 18.3333C22.4998 17.8666 22.1332 17.4999 21.6665 17.4999H21.3998C21.1832 16.8666 20.9998 16.1999 20.8998 15.4833C22.5498 14.3999 22.8498 11.5999 22.4832 9.83327C21.8665 6.84994 18.6498 3.84994 14.9332 4.16661C12.3665 4.38327 10.6665 6.04994 9.89984 7.03327C9.6665 7.33327 9.3165 7.49994 8.93317 7.49994H7.08317C5.48317 7.49994 4.1665 8.79994 4.1665 10.4166C4.1665 11.5499 4.8165 12.5833 5.8165 13.0499C6.44984 13.3333 7.09984 13.5666 7.74984 13.7499C8.14984 13.8666 8.54984 13.9499 8.9165 14.0166C9.28317 14.0833 9.6165 14.2999 9.79984 14.5999C9.98317 14.8833 10.0165 15.2333 9.93317 15.5666C9.7665 16.0999 9.63317 16.6833 9.49984 17.2999C9.49984 17.3833 9.48317 17.4666 9.4665 17.5333C9.0665 17.5833 8.74984 17.9166 8.74984 18.3499C8.74984 18.6833 8.94984 18.9833 9.24984 19.1166C9.18317 19.8333 9.14984 20.5499 9.1665 21.2666C9.1665 21.6833 9.28317 22.0999 9.48317 22.4833L10.4165 24.3499C10.6998 24.9333 10.8498 25.5666 10.8498 26.2166V31.2833C10.8498 32.8833 12.1498 34.1999 13.7665 34.1999H30.8498C32.2665 34.1999 33.6165 33.5999 34.5498 32.5499C35.4998 31.4999 35.9498 30.0999 35.8165 28.6833C35.5665 26.1666 33.2665 24.1999 30.5998 24.1999V24.1666ZM9.19984 12.3499C8.8665 12.2999 8.53317 12.2166 8.18317 12.1333C7.6165 11.9833 7.04984 11.7666 6.49984 11.5166C6.08317 11.3333 5.8165 10.8999 5.8165 10.3999C5.8165 9.71661 6.3665 9.14994 7.0665 9.14994H8.9165C9.79984 9.14994 10.6332 8.74994 11.1832 8.06661C11.7998 7.29994 13.1165 5.98327 15.0665 5.81661C17.9498 5.58327 20.3665 7.86661 20.8498 10.1499C21.1832 11.7166 20.7665 13.8499 19.7498 14.1833C19.7498 14.1833 19.7498 14.1833 19.7332 14.1833C19.0165 14.3999 17.8998 13.7999 17.3832 12.8999C16.6998 11.6999 17.3665 10.4166 17.3832 10.3666C17.5998 9.96661 17.4498 9.44994 17.0332 9.23327C16.6332 9.01661 16.1165 9.16661 15.8998 9.58327C15.7832 9.79994 14.8165 11.7666 15.8998 13.7166C16.6165 14.9833 17.9665 15.8166 19.2332 15.8833C19.3165 16.4333 19.4498 16.9666 19.5998 17.4666H11.1165C11.2165 16.9333 11.3498 16.4499 11.4832 15.9833C11.7165 15.1999 11.5998 14.3666 11.1832 13.6666C10.7332 12.9499 9.99984 12.4666 9.1665 12.3166L9.19984 12.3499ZM19.9998 32.4999C18.6832 32.4999 17.5832 31.4666 17.4998 30.1499V29.9499C17.3832 28.2499 18.5332 26.5666 20.3332 25.7666C20.7498 25.5833 20.9498 25.0833 20.7498 24.6666C20.5498 24.2499 20.0665 24.0666 19.6498 24.2499C17.2332 25.3333 15.6832 27.6666 15.8332 30.0666V30.2833C15.8998 31.1166 16.1998 31.8833 16.6832 32.5166H13.7498C13.0665 32.5166 12.4998 31.9666 12.4998 31.2666V26.1999C12.4998 25.2999 12.2832 24.3999 11.8832 23.5833L10.9498 21.7166C10.8665 21.5499 10.8165 21.3666 10.8165 21.1999C10.8165 20.5166 10.8498 19.8333 10.9165 19.1666H20.2998C20.5165 19.6333 20.7665 20.0666 21.0498 20.4833C21.4665 21.0999 21.8498 21.4833 22.2665 21.9499C22.5498 22.2333 22.8498 22.5666 23.2332 23.0166C23.9998 23.9166 24.6832 24.8833 25.2832 25.9166C25.6332 26.5166 25.8165 27.2166 25.8165 27.9666V31.2666C25.8165 31.9499 25.2665 32.5166 24.5665 32.5166H19.9832L19.9998 32.4999Z" fill="#FAFAF7"/>
</svg>
