<svg width="40" height="40" viewBox="0 0 40 40" fill="none" xmlns="http://www.w3.org/2000/svg">
<path d="M33.3332 24.1665V10.8332C33.3332 7.69047 33.3332 6.11912 32.3568 5.14282C31.3805 4.1665 29.8092 4.1665 26.6665 4.1665H13.3332C10.1905 4.1665 8.61912 4.1665 7.64282 5.14282C6.6665 6.11912 6.6665 7.69047 6.6665 10.8332V24.1665" stroke="#FAFAF7" stroke-width="2" stroke-linecap="round" stroke-linejoin="round"/>
<path d="M5.82953 25.8588L6.69938 24.1665H33.2532L34.1707 25.8588C36.5755 30.2948 37.1745 32.5127 36.2603 34.173C35.3463 35.8332 32.9228 35.8332 28.0758 35.8332H11.9245C7.07753 35.8332 4.65401 35.8332 3.73995 34.173C2.82588 32.5127 3.42473 30.2948 5.82953 25.8588Z" stroke="#FAFAF7" stroke-width="2" stroke-linecap="round" stroke-linejoin="round"/>
<path d="M25.8335 11.6665L27.3667 12.988C28.0112 13.5436 28.3335 13.8213 28.3335 14.1665C28.3335 14.5117 28.0112 14.7895 27.3667 15.345L25.8335 16.6665" stroke="#FAFAF7" stroke-width="2" stroke-linecap="round" stroke-linejoin="round"/>
<path d="M14.1665 11.6665L12.6333 12.988C11.9888 13.5436 11.6665 13.8213 11.6665 14.1665C11.6665 14.5117 11.9888 14.7895 12.6333 15.345L14.1665 16.6665" stroke="#FAFAF7" stroke-width="2" stroke-linecap="round" stroke-linejoin="round"/>
<path d="M21.6668 10L18.3335 18.3333" stroke="#FAFAF7" stroke-width="2" stroke-linecap="round" stroke-linejoin="round"/>
</svg>
