<svg width="40" height="40" viewBox="0 0 40 40" fill="none" xmlns="http://www.w3.org/2000/svg">
<path d="M5 29.9682V21.1793C5 15.1238 5 12.096 6.83058 10.2147C8.66117 8.3335 11.6074 8.3335 17.5 8.3335C23.3925 8.3335 26.3388 8.3335 28.1695 10.2147C30 12.096 30 15.1238 30 21.1793V29.9682C30 33.8113 30 35.7328 28.7925 36.4207C26.454 37.7525 22.0675 33.3088 19.9843 31.9708C18.7762 31.1948 18.1722 30.8068 17.5 30.8068C16.8278 30.8068 16.2238 31.1948 15.0156 31.9708C12.9325 33.3088 8.54605 37.7525 6.20757 36.4207C5 35.7328 5 33.8113 5 29.9682Z" stroke="#1F1B16" stroke-width="2" stroke-linecap="round" stroke-linejoin="round"/>
<path d="M15 3.3335H18.3333C26.19 3.3335 30.1185 3.3335 32.5592 5.77428C35 8.21505 35 12.1434 35 20.0002V30.0002" stroke="#1F1B16" stroke-width="2" stroke-linecap="round" stroke-linejoin="round"/>
</svg>
