<svg width="40" height="40" viewBox="0 0 40 40" fill="none" xmlns="http://www.w3.org/2000/svg">
<path d="M10.8752 33.4431C10.1174 33.4431 9.49313 33.1974 9.00229 32.706C8.51118 32.2149 8.26562 31.5903 8.26562 30.8322C8.26562 30.3064 8.39729 29.8045 8.66063 29.3264C8.92396 28.8481 9.30243 28.5084 9.79604 28.3072L16.8906 25.5039V20.0031C15.2306 21.9775 13.5559 23.5171 11.8665 24.6218C10.1773 25.7263 8.30187 26.3768 6.24021 26.5735C5.87771 26.6357 5.56215 26.5289 5.29354 26.2531C5.02493 25.9772 4.89062 25.6447 4.89062 25.2556C4.89062 24.8906 5.02035 24.5728 5.27979 24.3022C5.53896 24.0314 5.85188 23.8649 6.21854 23.8027C7.82549 23.6074 9.30062 23.0949 10.644 22.2652C11.987 21.4357 13.2009 20.326 14.2856 18.936L16.7023 16.2177C16.9895 15.871 17.328 15.5849 17.7177 15.3593C18.1074 15.1338 18.5349 15.021 19.0002 15.021H21.0002C21.4655 15.021 21.8999 15.1354 22.3035 15.3643C22.7072 15.5932 23.0526 15.881 23.3398 16.2277L25.7565 18.9556C26.8967 20.2903 28.1245 21.3829 29.4398 22.2335C30.7553 23.0843 32.2027 23.6074 33.7819 23.8027C34.1485 23.8649 34.4615 24.0314 34.7206 24.3022C34.9801 24.5728 35.1098 24.8906 35.1098 25.2556C35.1098 25.6447 34.9755 25.9772 34.7069 26.2531C34.4383 26.5289 34.1227 26.6357 33.7602 26.5735C31.6985 26.3768 29.8231 25.7263 28.134 24.6218C26.4445 23.5171 24.7698 21.9775 23.1098 20.0031V25.5039L30.2169 28.3072C30.7022 28.5084 31.0765 28.8478 31.3398 29.3256C31.6031 29.8036 31.7348 30.3053 31.7348 30.8306C31.7348 31.5881 31.4892 32.2128 30.9981 32.7047C30.5073 33.197 29.883 33.4431 29.1252 33.4431H16.5002V32.8752C16.5002 32.1329 16.7241 31.5446 17.1719 31.1102C17.6197 30.6757 18.2013 30.4585 18.9169 30.4585H24.4585C24.6808 30.4585 24.8752 30.3752 25.0419 30.2085C25.2085 30.0418 25.2919 29.8474 25.2919 29.6252C25.2919 29.4029 25.2085 29.2085 25.0419 29.0418C24.8752 28.8752 24.6808 28.7918 24.4585 28.7918H18.9169C17.7013 28.7918 16.7308 29.1668 16.0052 29.9168C15.2797 30.6668 14.9169 31.6529 14.9169 32.8752V33.4431H10.8752ZM20.0027 12.521C19.1344 12.521 18.3917 12.212 17.7748 11.5939C17.1576 10.9761 16.849 10.2314 16.849 9.35975C16.849 8.49086 17.1567 7.7485 17.7723 7.13266C18.3878 6.51655 19.1297 6.2085 19.9977 6.2085C20.866 6.2085 21.6087 6.51697 22.2256 7.13391C22.8428 7.75086 23.1515 8.49433 23.1515 9.36433C23.1515 10.2346 22.8437 10.9782 22.2281 11.5952C21.6126 12.2124 20.8708 12.521 20.0027 12.521Z" fill="#FAFAF7"/>
</svg>
