<svg width="40" height="40" viewBox="0 0 40 40" fill="none" xmlns="http://www.w3.org/2000/svg">
<path d="M18.3669 16.6668C18.3669 16.2002 18.0002 15.8335 17.5335 15.8335H17.5169C17.0502 15.8335 16.7002 16.2002 16.7002 16.6668C16.7002 17.1335 17.0835 17.5002 17.5335 17.5002C17.9835 17.5002 18.3669 17.1335 18.3669 16.6668Z" fill="#1F1B16"/>
<path d="M22.5335 15.8335H22.5169C22.0502 15.8335 21.7002 16.2002 21.7002 16.6668C21.7002 17.1335 22.0835 17.5002 22.5335 17.5002C22.9835 17.5002 23.3669 17.1335 23.3669 16.6668C23.3669 16.2002 23.0002 15.8335 22.5335 15.8335Z" fill="#1F1B16"/>
<path d="M21.9 19.85C21.4833 19.6667 20.9833 19.85 20.8 20.2833C20.6667 20.6167 20.3333 20.8167 19.9833 20.8333C19.6833 20.8333 19.3 20.6333 19.15 20.3C18.95 19.8833 18.4667 19.7 18.05 19.9C17.6333 20.1 17.45 20.5833 17.65 21C18.0667 21.9167 18.9833 22.4833 19.9833 22.4833H20.0333C21.0333 22.4667 21.9333 21.85 22.3333 20.9333C22.5167 20.5167 22.3333 20.0167 21.9 19.8333V19.85Z" fill="#1F1B16"/>
<path d="M30.7831 18.5168C29.8998 17.8502 28.9998 17.6002 28.1831 17.5168L28.3498 15.6502C28.5998 12.9835 27.7331 10.3668 25.9998 8.46683C24.4498 6.76683 22.3831 5.8335 20.1831 5.8335H19.7998C17.5998 5.8335 15.5331 6.76683 13.9831 8.46683C12.2498 10.3668 11.3831 12.9835 11.6331 15.6502L11.7998 17.5168C10.9998 17.6002 10.0664 17.8502 9.19976 18.5002C7.51642 19.7668 6.83309 22.0502 6.91642 23.6335C6.96642 24.6168 7.31642 25.3668 7.88309 25.7002C8.13309 25.8502 8.41642 25.9168 8.69976 25.9168C10.3331 25.9168 12.4831 23.8168 13.6331 22.5335C14.2331 23.3335 14.9664 24.0168 15.7998 24.5502V25.8002H14.9664C11.7498 25.8002 9.13309 28.4168 9.13309 31.6335V33.3002C9.13309 34.6835 10.2498 35.8002 11.6331 35.8002H28.2998C29.6831 35.8002 30.7998 34.6835 30.7998 33.3002V31.6335C30.7998 28.4168 28.1831 25.8002 24.9664 25.8002H24.1331V24.5502C24.9664 24.0168 25.6998 23.3335 26.2998 22.5335C27.4498 23.8168 29.5998 25.9168 31.2331 25.9168C31.5331 25.9168 31.7998 25.8502 32.0498 25.7002C32.6164 25.3502 32.9664 24.6168 33.0164 23.6335C33.0998 22.0502 32.4164 19.7835 30.7331 18.5002L30.7831 18.5168ZM15.2331 9.5835C16.4664 8.2335 18.0831 7.50016 19.8164 7.50016H20.1998C21.9164 7.50016 23.5498 8.2335 24.7831 9.5835C25.9498 10.8668 26.5998 12.5668 26.6998 14.3502C26.1998 14.3502 25.6998 14.3168 25.2331 14.1835C22.1498 13.3668 20.9331 10.0835 20.7998 9.71683C20.5664 9.05016 19.4498 9.05016 19.2164 9.71683C19.0831 10.0835 17.8831 13.3668 14.7831 14.1835C14.3164 14.3168 13.8164 14.3502 13.3164 14.3502C13.3998 12.5668 14.0498 10.8668 15.2331 9.5835ZM12.6998 21.1168C10.5164 23.6168 9.06642 24.3002 8.78309 24.3002C8.69976 24.2168 8.54976 23.8002 8.59976 23.0668C8.66642 22.0835 9.13309 20.6502 10.2164 19.8335C10.8331 19.3668 11.5164 19.2002 12.0831 19.1502C12.2498 19.8168 12.4664 20.4668 12.7664 21.0668C12.7664 21.0668 12.7331 21.0835 12.7164 21.1002L12.6998 21.1168ZM23.6164 27.5002H24.1664V34.1668H15.8331V27.5002H16.3831C17.4164 28.4002 18.6998 28.8835 19.9998 28.8835C21.2998 28.8835 22.5831 28.4002 23.6164 27.5002ZM10.8331 33.3335V31.6668C10.8331 29.6502 12.2664 27.9668 14.1664 27.5835V34.1668H11.6664C11.1998 34.1668 10.8331 33.8002 10.8331 33.3335ZM29.1664 31.6668V33.3335C29.1664 33.8002 28.7998 34.1668 28.3331 34.1668H25.8331V27.5835C27.7331 27.9668 29.1664 29.6502 29.1664 31.6668ZM22.9331 23.4002C22.6164 23.5835 22.4664 23.9335 22.5331 24.2835C22.5331 24.3335 22.5164 24.3668 22.5164 24.4002V26.2668C21.0664 27.5002 18.9664 27.5002 17.5164 26.2668V24.4002C17.5164 24.4002 17.4998 24.3168 17.4998 24.2835C17.5664 23.9335 17.4164 23.5835 17.0998 23.4002C15.0831 22.2835 13.7498 20.1168 13.5331 17.6335L13.3831 16.0502C14.0164 16.0502 14.6331 15.9668 15.2331 15.8168C17.7164 15.1668 19.1998 13.3668 20.0164 11.9668C20.8331 13.3668 22.3331 15.1668 24.7998 15.8168C25.3998 15.9835 26.0331 16.0335 26.6664 16.0335L26.5164 17.6502C26.2831 20.1335 24.9498 22.3002 22.9498 23.4168L22.9331 23.4002ZM31.2831 24.2668C30.9331 24.3335 29.4831 23.6168 27.2998 21.1168C27.2998 21.1002 27.2664 21.1002 27.2498 21.0835C27.5498 20.4835 27.7664 19.8335 27.9331 19.1668C28.4998 19.2168 29.1831 19.3835 29.7998 19.8502C30.8831 20.6668 31.3331 22.1002 31.4164 23.0835C31.4664 23.8168 31.3164 24.2335 31.2998 24.2835L31.2831 24.2668Z" fill="#1F1B16"/>
</svg>
