<svg preserveAspectRatio="none" width="100%" height="100%" overflow="visible" style="display: block;" viewBox="0 0 40 40" fill="none" xmlns="http://www.w3.org/2000/svg">
<g id="student-role">
<path id="Vector" d="M31.6667 8.33333L20 3.33333L8.33333 8.33333L14.1667 10.8333V14.1667C14.1667 14.1667 16.1111 13.3333 20 13.3333C23.8888 13.3333 25.8333 14.1667 25.8333 14.1667V10.8333L31.6667 8.33333ZM31.6667 8.33333V15" stroke="#1F1B16" stroke-width="2" stroke-linecap="round" stroke-linejoin="round"/>
<path id="Vector_2" d="M25.8333 14.1667V15.8333C25.8333 19.055 23.2217 21.6667 20 21.6667C16.7783 21.6667 14.1667 19.055 14.1667 15.8333V14.1667" stroke="#1F1B16" stroke-width="2" stroke-linecap="round" stroke-linejoin="round"/>
<path id="Vector_3" d="M12.9709 27.8381C11.137 28.9789 6.32844 31.3082 9.25715 34.2229C10.6878 35.6467 12.2812 36.6651 14.2845 36.6651H25.7155C27.7188 36.6651 29.3122 35.6467 30.7428 34.2229C33.6715 31.3082 28.863 28.9789 27.029 27.8381C22.7285 25.1629 17.2715 25.1629 12.9709 27.8381Z" stroke="#1F1B16" stroke-width="2" stroke-linecap="round" stroke-linejoin="round"/>
</g>
</svg>
